<svg xmlns="http://www.w3.org/2000/svg" width="20.915" height="22.077" viewBox="0 0 20.915 22.077">
  <path id="cart" d="M9.553,21.591A1.743,1.743,0,1,0,11.3,23.334,1.743,1.743,0,0,0,9.553,21.591Zm12.2-3.486H7.81a1.162,1.162,0,1,1,0-2.324h9.866a3.5,3.5,0,0,0,3.352-2.528L22.87,6.805a1.162,1.162,0,0,0-1.117-1.481H7.506A3.494,3.494,0,0,0,4.233,3H3.162a1.162,1.162,0,1,0,0,2.324H4.233a1.167,1.167,0,0,1,1.117.843L5.53,6.8v.006l1.906,6.672a3.486,3.486,0,0,0,.373,6.952H21.753a1.162,1.162,0,0,0,0-2.324ZM20.212,7.648l-1.419,4.967a1.167,1.167,0,0,1-1.118.843H9.848l-.3-1.037L8.189,7.648ZM18.848,21.591a1.743,1.743,0,1,0,1.743,1.743A1.743,1.743,0,0,0,18.848,21.591Z" transform="translate(-2 -3)"/>
</svg>
