<svg xmlns="http://www.w3.org/2000/svg" width="17.622" height="21.2" viewBox="0 0 17.622 21.2">
  <path id="lock" d="M12.811,13.66a1.642,1.642,0,0,0-1.552,1.014,1.54,1.54,0,0,0,.45,1.752V17.9a1.1,1.1,0,0,0,2.2,0V16.427a1.54,1.54,0,0,0,.45-1.752,1.642,1.642,0,0,0-1.552-1.014Zm5.507-4.24V7.3A5.406,5.406,0,0,0,12.811,2,5.406,5.406,0,0,0,7.3,7.3V9.42A3.244,3.244,0,0,0,4,12.6v7.42A3.244,3.244,0,0,0,7.3,23.2H18.318a3.244,3.244,0,0,0,3.3-3.18V12.6A3.244,3.244,0,0,0,18.318,9.42ZM9.507,7.3a3.307,3.307,0,0,1,6.608,0V9.42H9.507Zm9.912,12.72a1.081,1.081,0,0,1-1.1,1.06H7.3a1.081,1.081,0,0,1-1.1-1.06V12.6a1.081,1.081,0,0,1,1.1-1.06H18.318a1.081,1.081,0,0,1,1.1,1.06Z" transform="translate(-4 -2)"/>
</svg>
